# xmcd
#
# Track frame offsets:
#	150
#	16100
#	31635
#	48287
#	61420
#	76072
#	95170
#	110897
#	124755
#	135512
#	150860
#	163680
#	181272
#	200955
#	213942
#	232185
#	247220
#
# Disc length: 3479 seconds
#
# Revision: 0
# Processed by: cddbd v1.5.2PL0 Copyright (c) Steve Scherf et al.
# Submitted via: EasyCDDAExtractor 11.1.0.1
#
DISCID=e40d9511
DTITLE=Alexandre Luiz - As Mais Lindas Músicas Sertanejas
DYEAR=1900
DGENRE=Sertanejo
TTITLE0=Boiadeiro Errante
TTITLE1=Tocando em Frente
TTITLE2=Tristeza do Jeca
TTITLE3=Pé de Cedro
TTITLE4=No Colo da Noite
TTITLE5=Viola Manhosa
TTITLE6=Menino da Porteira
TTITLE7=Rio de Lágrimas
TTITLE8=Pingo D`Água
TTITLE9=Meu Cavalo Zaino
TTITLE10=Saudades de Minha Terra
TTITLE11=Porta do Mundo
TTITLE12=Agora eu Tenho Terra
TTITLE13=Chalana
TTITLE14=Bendeira do Divino
TTITLE15=Panela Velha
TTITLE16=Rei do Gado
EXTD=
EXTT0=
EXTT1=
EXTT2=
EXTT3=
EXTT4=
EXTT5=
EXTT6=
EXTT7=
EXTT8=
EXTT9=
EXTT10=
EXTT11=
EXTT12=
EXTT13=
EXTT14=
EXTT15=
EXTT16=
PLAYORDER=
